# xmcd
#
# Track frame offsets:
#	150
#	21066
#	42750
#	59547
#	79353
#	99301
#	116005
#	135146
#	156832
#	170631
#	182544
#	199636
#
# Disc length: 2892 seconds
#
# Revision: 0
# Processed by: cddbd v1.5.2PL0 Copyright (c) Steve Scherf et al.
# Submitted via: EasyCDDAExtractor 15.2.5.1
#
DISCID=940b4a0c
DTITLE=Kierra Sheard - My Kierra Sheard Playlist
DYEAR=2011
DGENRE=Gospel
TTITLE0=Teach Me
TTITLE1=Snap
TTITLE2=No, Never
TTITLE3=This Is Me
TTITLE4=You Don't Know (Godson Rock Joint)
TTITLE5=Church Nite
TTITLE6=Hear This
TTITLE7=Nearer My God To Thee 
TTITLE8=One
TTITLE9=If It Had Not Been
TTITLE10=Love Like Crazy
TTITLE11=You Don't Know
EXTD=
EXTT0=
EXTT1=
EXTT2=
EXTT3=
EXTT4=
EXTT5=
EXTT6=
EXTT7=
EXTT8=
EXTT9=
EXTT10=
EXTT11=
PLAYORDER=
